# xmcd
#
# Track frame offsets: 
#        150
#        12374
#        23216
#        35429
#        47890
#        60488
#        71320
#        81670
#        92093
#        108173
#        132813
#        148568
#        163091
#        181035
#        207503
#
# Disc length: 3008 seconds
#
# Revision: 1
# Processed by: cddbd v1.5.2PL0 Copyright (c) Steve Scherf et al.
# Submitted via: ExactAudioCopy v1.3
#
DISCID=c90bbe0f
DTITLE=Aretha Franklin - The Best Of
DYEAR=1997
DGENRE=
TTITLE0=I Never Loved a Man (the Way I Loved You)
TTITLE1=Respect
TTITLE2=Baby I Love You
TTITLE3=A Natural Women (You Make Me Feel)
TTITLE4=Chain of Fools
TTITLE5=(Sweet Sweet Baby) Since You've Been Gone
TTITLE6=Think
TTITLE7=The House That Jack Build
TTITLE8=I Say a Little Prayer
TTITLE9=Bridge Over Troubled Water
TTITLE10=Spanish Harlem
TTITLE11=Rock Steady
TTITLE12=Day Dreaming
TTITLE13=Freeway of Love
TTITLE14=I Knew You Were Waiting (for Me)
EXTD=
EXTT0=
EXTT1=
EXTT2=
EXTT3=
EXTT4=
EXTT5=
EXTT6=
EXTT7=
EXTT8=
EXTT9=
EXTT10=
EXTT11=
EXTT12=
EXTT13=
EXTT14=
PLAYORDER=
